# xmcd
#
# Track frame offsets: 
#        150
#        25845
#        54698
#        85865
#        108658
#        142546
#
# Disc length: 2317 seconds
#
# Revision: 0
# Processed by: cddbd v1.5.2PL0 Copyright (c) Steve Scherf et al.
# Submitted via: ExactAudioCopyFreeDBPlugin 1.0
#
DISCID=44090b06
DTITLE=Peaking Lights - Fifth State Of Consciousness [CD 2)
DYEAR=2017
DGENRE=Pop
TTITLE0=Que Du Bon
TTITLE1=A Phoenix And A Fish
TTITLE2=Eclipse Of The Heart
TTITLE3=In My Disguise
TTITLE4=Put Down Your Guns
TTITLE5=Wild Paradise
EXTD=
EXTT0=
EXTT1=
EXTT2=
EXTT3=
EXTT4=
EXTT5=
PLAYORDER=
